{"title":"[Epi.06]Indian Idol 5 - 04th May'10 - XviD - HQ.mkv","uid":5539383,"size":181650805,"categoryP":"video","categoryS":"tv_shows","magnet":"?xt=urn:btih:d0462c77c112c51428bf97574616e88eb45b0106&amp;dn=%5BEpi.06%5DIndian+Idol+5+-+04th+May%5C%2710+-+XviD+-+HQ.mkv&amp;tr=udp%3A%2F%2Ftracker.openbittorrent.com%3A80&amp;tr=udp%3A%2F%2Fopen.demonii.com%3A1337&amp;tr=udp%3A%2F%2Ftracker.coppersurfer.tk%3A6969&amp;tr=udp%3A%2F%2Fexodus.desync.com%3A6969","seeders":0,"leechers":1,"uploader":"DibyaTPB","files":1,"time":1273174469,"description":"Format                           : Matroska\nFile size                        : 173 MiB\nDuration                         : 1h 3mn\nOverall bit rate                 : 380 Kbps\nEncoded date                     : UTC 2010-05-05 18:38:16\nWriting application              : mkvmerge v3.2.0 ('Beginnings') built on Feb 12 2010 16:46:17\nWriting library                  : libebml v0.7.9 + libmatroska v0.8.1\n\nVideo\nID                               : 1\nFormat                           : AVC\nFormat/Info                      : Advanced Video Codec\nFormat profile                   : &lt;a class=&quot;__cf_email__&quot; href=&quot;/cdn-cgi/l/email-protection&quot; data-cfemail=&quot;7a32131d123a3648544b&quot;&gt;[email&amp;#160;protected]&lt;/a&gt;&lt;script cf-hash='f9e31' type=&quot;text/javascript&quot;&gt;\n/* &lt;![CDATA[ */!function(){try{var t=&quot;currentScript&quot;in document?document.currentScript:function(){for(var t=document.getElementsByTagName(&quot;script&quot;),e=t.length;e--;)if(t[e].getAttribute(&quot;cf-hash&quot;))return t[e]}();if(t&amp;&amp;t.previousSibling){var e,r,n,i,c=t.previousSibling,a=c.getAttribute(&quot;data-cfemail&quot;);if(a){for(e=&quot;&quot;,r=parseInt(a.substr(0,2),16),n=2;a.length-n;n+=2)i=parseInt(a.substr(n,2),16)^r,e+=String.fromCharCode(i);e=document.createTextNode(e),c.parentNode.replaceChild(e,c)}}}catch(u){}}();/* ]]&gt; */&lt;/script&gt;\nFormat settings, CABAC           : Yes\nFormat settings, ReFrames        : 3 frames\nMuxing mode                      : Container profile=&lt;a class=&quot;__cf_email__&quot; href=&quot;/cdn-cgi/l/email-protection&quot; data-cfemail=&quot;0752696c6968706947352936&quot;&gt;[email&amp;#160;protected]&lt;/a&gt;&lt;script cf-hash='f9e31' type=&quot;text/javascript&quot;&gt;\n/* &lt;![CDATA[ */!function(){try{var t=&quot;currentScript&quot;in document?document.currentScript:function(){for(var t=document.getElementsByTagName(&quot;script&quot;),e=t.length;e--;)if(t[e].getAttribute(&quot;cf-hash&quot;))return t[e]}();if(t&amp;&amp;t.previousSibling){var e,r,n,i,c=t.previousSibling,a=c.getAttribute(&quot;data-cfemail&quot;);if(a){for(e=&quot;&quot;,r=parseInt(a.substr(0,2),16),n=2;a.length-n;n+=2)i=parseInt(a.substr(n,2),16)^r,e+=String.fromCharCode(i);e=document.createTextNode(e),c.parentNode.replaceChild(e,c)}}}catch(u){}}();/* ]]&gt; */&lt;/script&gt;\nCodec ID                         : V_MPEG4/ISO/AVC\nDuration                         : 1h 3mn\nBit rate                         : 245 Kbps\nNominal bit rate                 : 252 Kbps\nWidth                            : 512 pixels\nHeight                           : 384 pixels\nDisplay aspect ratio             : 4:3\nFrame rate                       : 25.000 fps\nResolution                       : 24 bits\nColorimetry                      : 4:2:0\nScan type                        : Progressive\nBits/(Pixel*Frame)               : 0.050\nStream size                      : 112 MiB (64%)\nWriting library                  : x264 core 80 r1376M 3feaec2\n\nAudio\nID                               : 2\nFormat                           : MPEG Audio\nFormat version                   : Version 2\nFormat profile                   : Layer 3\nFormat_Settings_Mode             : Joint stereo\nCodec ID                         : A_MPEG/L3\nCodec ID/Hint                    : MP3\nDuration                         : 1h 3mn\nBit rate mode                    : Constant\nBit rate                         : 128 Kbps\nChannel(s)                       : 2 channels\nSampling rate                    : 16.0 KHz\nResolution                       : 16 bits\nStream size                      : 58.3 MiB (34%)\nWriting library                  : LAME3.98r\nEncoding settings                : -m j -V 4 -q 2 -lowpass 8 -b 128\n &lt;a href=&quot;\nhttp://i36.photobucket.com/albums/e10/niks707973/Epi06IndianIdol5-04thMay10-XviD-HQm.jpg&quot; rel=&quot;nofollow&quot; target=&quot;_NEW&quot;&gt;\nhttp://i36.photobucket.com/albums/e10/niks707973/Epi06IndianIdol5-04thMay10-XviD-HQm.jpg&lt;/a&gt;","torrent":{"xt":"urn:btih:d0462c77c112c51428bf97574616e88eb45b0106","amp;dn":"%5BEpi.06%5DIndian+Idol+5+-+04th+May%5C%2710+-+XviD+-+HQ.mkv","amp;tr":["udp%3A%2F%2Ftracker.openbittorrent.com%3A80","udp%3A%2F%2Fopen.demonii.com%3A1337","udp%3A%2F%2Ftracker.coppersurfer.tk%3A6969","udp%3A%2F%2Fexodus.desync.com%3A6969"],"infoHash":"d0462c77c112c51428bf97574616e88eb45b0106","infoHashBuffer":{"type":"Buffer","data":[208,70,44,119,193,18,197,20,40,191,151,87,70,22,232,142,180,91,1,6]},"announce":[],"urlList":[]}}